<svg preserveAspectRatio="none" width="100%" height="100%" overflow="visible" style="display: block;" viewBox="0 0 108 27" fill="none" xmlns="http://www.w3.org/2000/svg">
<g id="logos:linkedin" clip-path="url(#clip0_0_326)">
<path id="Vector" d="M42.6214 15.8142L48.5808 23.1428H43.875L38.5714 16.4122V23.1428H34.7142V3.8572H38.5714V15.1972L43.47 9.6428H48.3878L42.6214 15.8142ZM27.1928 9.2572C26.3483 9.2699 25.5194 9.48706 24.7772 9.89009C24.0349 10.2931 23.4014 10.87 22.9308 11.5714V9.6428H19.2858V23.1428H23.1428V16.8364C23.0922 16.3787 23.1363 15.9154 23.2724 15.4755C23.4086 15.0355 23.6338 14.6283 23.9341 14.2792C24.2344 13.93 24.6033 13.6464 25.018 13.446C25.4326 13.2456 25.884 13.1326 26.3442 13.1142C28.5814 13.1142 28.9286 15.3128 28.9286 16.8364V23.1428H32.7858V15.9878C32.7858 11.745 31.3778 9.2572 27.27 9.2572H27.1928ZM61.7142 16.7014C61.729 16.9842 61.729 17.2671 61.7142 17.55H51.5892V17.685C51.7536 18.4892 52.1991 19.2086 52.8459 19.714C53.4928 20.2194 54.2985 20.4778 55.1186 20.4428C55.7692 20.4711 56.4188 20.3678 57.0285 20.1392C57.6383 19.9106 58.1956 19.5613 58.6672 19.1122L61.2322 21.0408C60.4193 21.8705 59.4415 22.5205 58.3619 22.949C57.2823 23.3775 56.1248 23.575 54.9642 23.5286C54.0031 23.5893 53.0401 23.4431 52.1403 23.0997C51.2405 22.7564 50.4249 22.224 49.7485 21.5384C49.0721 20.8529 48.5507 20.0301 48.2195 19.1258C47.8883 18.2215 47.755 17.2566 47.8286 16.2964C47.8088 15.3485 47.9845 14.4066 48.3447 13.5295C48.7049 12.6525 49.2419 11.859 49.9222 11.1986C50.6026 10.5381 51.4116 10.0249 52.299 9.69094C53.1864 9.35693 54.1331 9.20929 55.08 9.2572C58.7058 9.2572 61.7142 11.8222 61.7142 16.7014ZM58.1272 15.0428C58.113 14.6608 58.0212 14.2857 57.8573 13.9403C57.6934 13.595 57.461 13.2866 57.1741 13.034C56.8872 12.7814 56.5519 12.5898 56.1885 12.471C55.8252 12.3522 55.4415 12.3085 55.0608 12.3428C53.3649 12.1595 51.829 13.354 51.5892 15.0428H58.1272ZM3.8572 3.8572H0V23.1428H11.5714V19.286H3.8572V3.8572ZM73.2858 3.8572H77.1428V23.1428H73.4978V21.7928C73.0349 22.363 72.445 22.817 71.7753 23.1184C71.1056 23.4198 70.3746 23.5603 69.6408 23.5286C68.7444 23.5056 67.8621 23.2995 67.0482 22.9229C66.2344 22.5464 65.5061 22.0074 64.9082 21.3391C64.3103 20.6707 63.8554 19.8872 63.5715 19.0366C63.2876 18.186 63.1806 17.2863 63.2572 16.3928C63.1661 15.4981 63.2623 14.5942 63.5396 13.7386C63.8169 12.8831 64.2693 12.0947 64.8679 11.4235C65.4665 10.7523 66.1983 10.2131 67.0167 9.84013C67.8351 9.46717 68.7221 9.26865 69.6214 9.2572C70.2912 9.22781 70.9602 9.33204 71.5893 9.56381C72.2185 9.79559 72.7951 10.1503 73.2858 10.6072V3.8572ZM73.575 16.3928C73.6356 15.9475 73.6001 15.4943 73.4708 15.0639C73.3414 14.6334 73.1213 14.2358 72.8252 13.8976C72.5291 13.5595 72.1639 13.2888 71.7543 13.1037C71.3448 12.9187 70.9003 12.8237 70.4508 12.825C68.6057 12.9589 67.2076 14.5456 67.3072 16.3928C67.2076 18.24 68.6057 19.8269 70.4508 19.9608C70.9003 19.9621 71.3448 19.8671 71.7544 19.682C72.164 19.497 72.5292 19.2263 72.8253 18.8881C73.1214 18.55 73.3415 18.1522 73.4708 17.7218C73.6002 17.2913 73.6357 16.8381 73.575 16.3928ZM15.4286 3.4714C14.8083 3.48014 14.2145 3.72394 13.767 4.15356C13.3195 4.58319 13.0518 5.16661 13.0178 5.78602C13.0178 7.11724 14.0972 8.19661 15.4286 8.19661C16.76 8.19661 17.839 7.11703 17.839 5.78602C17.805 5.16669 17.5372 4.58334 17.0898 4.15377C16.6424 3.72419 16.0486 3.4804 15.4284 3.47161M13.5 23.1428H17.3572V9.6428H13.5V23.1428ZM108 1.9286V25.0714C108 25.5829 107.797 26.0734 107.435 26.4351C107.073 26.7968 106.583 27 106.071 27H82.9286C82.4171 27 81.9266 26.7968 81.5649 26.4351C81.2032 26.0734 81 25.5829 81 25.0714V1.9286C81 1.4171 81.2032 0.926557 81.5649 0.564874C81.9266 0.203191 82.4171 0 82.9286 0L106.071 0C106.583 0 107.073 0.203191 107.435 0.564874C107.797 0.926557 108 1.4171 108 1.9286ZM88.7142 9.6428H84.8572V23.1428H88.7142V9.6428ZM89.1964 5.7858C89.1964 4.45437 88.117 3.375 86.7858 3.375C85.4546 3.375 84.375 4.45437 84.375 5.7858C84.375 7.11703 85.4544 8.1964 86.7858 8.1964C88.117 8.1964 89.1964 7.11703 89.1964 5.7858ZM104.143 15.9878C104.143 11.745 102.735 9.2572 98.6272 9.2572C97.7695 9.25733 96.9251 9.4685 96.1683 9.87208C95.4116 10.2757 94.7657 10.8593 94.2878 11.5714V9.6428H90.6428V23.1428H94.5V16.8364C94.4494 16.3787 94.4935 15.9154 94.6296 15.4755C94.7658 15.0355 94.991 14.6283 95.2913 14.2792C95.5916 13.93 95.9605 13.6464 96.3752 13.446C96.7898 13.2456 97.2412 13.1326 97.7014 13.1142C99.9386 13.1142 100.286 15.3128 100.286 16.8364V23.1428H104.143V15.9878Z" fill="var(--fill-0, #0A66C2)"/>
</g>
<defs>
<clipPath id="clip0_0_326">
<rect width="108" height="27" fill="white"/>
</clipPath>
</defs>
</svg>
